Coordinates
version=1
nRows=4
nColumns=63
inDegrees=yes

Units are S.I. units (second, meters, Newtons, ...)
If the header above contains a line with 'inDegrees', this indicates whether rotational values are in degrees (yes) or radians (no).

endheader
time	pelvis_tilt	pelvis_list	pelvis_rotation	pelvis_tx	pelvis_ty	pelvis_tz	hip_flexion_r	hip_adduction_r	hip_rotation_r	knee_angle_r	knee_angle_r_beta	ankle_angle_r	subtalar_angle_r	mtp_angle_r	hip_flexion_l	hip_adduction_l	hip_rotation_l	knee_angle_l	knee_angle_l_beta	ankle_angle_l	subtalar_angle_l	mtp_angle_l	L5_S1_Flex_Ext	L5_S1_Lat_Bending	L5_S1_axial_rotation	L4_L5_Flex_Ext	L4_L5_Lat_Bending	L4_L5_axial_rotation	L3_L4_Flex_Ext	L3_L4_Lat_Bending	L3_L4_axial_rotation	L2_L3_Flex_Ext	L2_L3_Lat_Bending	L2_L3_axial_rotation	L1_L2_Flex_Ext	L1_L2_Lat_Bending	L1_L2_axial_rotation	L1_T12_Flex_Ext	L1_T12_Lat_Bending	L1_T12_axial_rotation	Abs_r3	Abs_r2	Abs_r1	Abs_t1	Abs_t2	neck_flexion	neck_bending	neck_rotation	arm_flex_r	arm_add_r	arm_rot_r	elbow_flex_r	pro_sup_r	wrist_flex_r	wrist_dev_r	arm_flex_l	arm_add_l	arm_rot_l	elbow_flex_l	pro_sup_l	wrist_flex_l	wrist_dev_l
      3.86274510	     -0.82219674	     -3.34418931	     87.06038637	     -0.00547919	      0.93929846	      0.56191755	      1.57374663	     -0.33627986	     -5.75732803	      6.36946321	      0.11116810	     27.85163833	      9.37162757	      0.00000000	      1.61752280	     -0.13317337	      4.01837078	      4.07363962	      0.07109842	     25.81465715	     -7.26460612	      0.00000000	     -0.03319405	      0.18215593	      1.63514471	     -0.06164467	      0.24226739	      1.73734125	     -0.05453450	      0.44289394	      1.73734125	     -0.03793748	      0.44289394	      1.43075162	     -0.03082399	      0.37145238	      1.32855507	     -0.01896708	      0.28215954	      1.22635853	     -0.23710178	      2.06058435	      9.09418432	      0.00000000	      0.00000000	     24.79122060	     -3.01900942	     -6.00244126	     -4.64342149	    -13.69062892	     21.58470669	     28.15880010	     79.29860870	     -4.75207313	      2.40644184	     15.47517843	    -10.01594513	    120.99427734	     12.93615777	     25.56772558	     -0.89538146	      2.25788607
      3.88235294	     -0.89725680	     -3.16209021	     87.01910237	     -0.00566683	      0.93952832	      0.56085264	      1.27728390	     -0.43462764	     -5.64280216	      6.32647656	      0.11041785	     27.78922198	      9.23936336	      0.00000000	      1.30112070	     -0.02172551	      4.06004525	      3.96083482	      0.06912961	     25.63090960	     -7.42614189	      0.00000000	     -0.02872580	      0.18481017	      1.62020017	     -0.05334668	      0.24579753	      1.72146268	     -0.04719362	      0.44934745	      1.72146268	     -0.03283072	      0.44934745	      1.41767515	     -0.02667478	      0.37686490	      1.31641264	     -0.01641392	      0.28627096	      1.21515013	     -0.20518552	      2.09060963	      9.01106729	      0.00000000	      0.00000000	     24.56963903	     -3.24426973	     -5.86885231	     -4.78462351	    -13.73069326	     21.34911878	     28.53087661	     79.00720622	     -4.55199598	      1.71463654	     15.99064786	    -10.09562684	    122.56687728	     13.52007905	     26.79452994	     -1.04282953	      2.94651194
      3.90196078	     -0.91583113	     -2.95039180	     86.97875593	     -0.00563608	      0.93985091	      0.55978033	      0.94398583	     -0.45072975	     -5.39254383	      6.22068538	      0.10857144	     27.52222834	      8.95136737	      0.00000000	      0.90327990	      0.00628184	      4.25884080	      3.74919334	      0.06543577	     25.54636201	     -7.56890332	      0.00000000	     -0.02953890	      0.18992416	      1.63672722	     -0.05485668	      0.25259913	      1.73902268	     -0.04852945	      0.46178160	      1.73902268	     -0.03376000	      0.46178160	      1.43213632	     -0.02742982	      0.38729334	      1.32984087	     -0.01687853	      0.29419252	      1.22754542	     -0.21099338	      2.14846005	      9.10298580	      0.00000000	      0.00000000	     24.35016651	     -3.69245162	     -6.19668720	     -4.87566558	    -13.65988642	     21.04968016	     28.65478726	     78.65872523	     -4.30545328	      1.03486623	     16.66429698	    -10.07151145	    125.08590982	     14.04593523	     28.77520852	     -1.21339537	      3.55138505
      3.92156863	     -0.94728739	     -2.90740193	     86.83561116	     -0.00566593	      0.94004984	      0.55898557	      0.89352827	     -0.48831189	     -5.34773611	      6.24945932	      0.10907364	     27.40611462	      8.95930250	      0.00000000	      0.79931109	      0.03998162	      4.25571890	      3.75707621	      0.06557335	     25.55468953	     -7.58606063	      0.00000000	     -0.01555212	      0.19562108	      1.61140109	     -0.02888184	      0.26017604	      1.71211366	     -0.02555058	      0.47563310	      1.71211366	     -0.01777452	      0.47563310	      1.40997595	     -0.01444170	      0.39891051	      1.30926338	     -0.00888648	      0.30301706	      1.20855082	     -0.11108725	      2.21290483	      8.96212944	      0.00000000	      0.00000000	     24.33634734	     -3.73079458	     -6.27557659	     -4.78157138	    -13.62168772	     21.01434640	     28.78876581	     78.63387502	     -4.29229749	      0.97038076	     16.62538257	    -10.13242220	    125.24113732	     14.07408500	     28.88759259	     -1.20205535	      3.56146111
